<svg width="200" height="64" viewBox="0 0 200 64" fill="none" xmlns="http://www.w3.org/2000/svg">
<g clip-path="url(#clip0_317_75)">
<path fill-rule="evenodd" clip-rule="evenodd" d="M143.43 23.1128L143.34 23.8346C143.272 23.9699 143.34 24.1278 143.452 24.1955L144.397 24.3985C144.532 24.4662 144.69 24.4211 144.757 24.2857C144.78 24.2632 144.78 24.218 144.78 24.1955L146.4 18.1278C146.422 17.8346 146.287 17.5414 146.017 17.406C145.837 17.3158 145.635 17.2932 145.455 17.3609L144.69 17.8346C143.565 18.4211 142.665 18.5113 142.012 18.6241C139.942 18.8045 136.86 18.782 133.552 18.8947C130.245 18.782 127.162 18.8045 125.092 18.6241C124.732 18.5789 124.395 18.3083 124.237 17.9925L123.765 17.2256C123.63 17.0902 123.45 17 123.247 17C122.932 17 122.662 17.203 122.572 17.4511L121.2 23.5865C121.177 23.609 121.177 23.6541 121.177 23.6767C121.177 23.8346 121.29 23.9023 121.447 23.9474L122.37 24.218C122.527 24.218 122.662 24.0602 122.707 23.9023L123.945 21.8722C124.687 20.9925 125.812 20.406 127.117 20.406L130.83 20.5865C131.077 20.5865 131.257 20.6316 131.302 21.0602V42.8496C131.28 43.6617 131.145 44.4737 130.47 45.1278C129.795 45.782 129.075 45.6241 128.197 45.8722C128.062 45.9624 127.95 46.1654 127.95 46.3684C127.95 46.6617 128.152 46.9098 128.377 46.9098C128.377 46.9098 131.212 46.6617 133.485 46.6165C135.757 46.6391 138.66 46.9098 138.66 46.9098C138.907 46.9098 139.11 46.6617 139.11 46.3684C139.11 46.1654 139.02 45.9398 138.862 45.8722C138.007 45.6241 137.265 45.782 136.59 45.1278C135.915 44.4737 135.825 43.6617 135.78 42.8496V21.0602C135.802 20.6316 135.982 20.5865 136.252 20.5865C138.975 20.5414 139.897 20.4962 141.877 20.7669C142.777 20.9925 143.452 21.8045 143.452 22.7744C143.475 22.8872 143.452 23 143.43 23.1128Z" fill="#00529B"/>
<path fill-rule="evenodd" clip-rule="evenodd" d="M159.473 21.5338C159.473 19.8872 160.8 18.5564 162.443 18.5564C164.085 18.5564 165.413 19.8872 165.413 21.5338C165.413 23.1805 164.085 24.5113 162.443 24.5113C160.8 24.5338 159.473 23.1805 159.473 21.5338ZM159.923 21.5564C159.923 20.1579 161.048 19.0301 162.443 19.0301C163.838 19.0301 164.963 20.1579 164.963 21.5564C164.963 22.9549 163.838 24.0827 162.443 24.0827C161.07 24.0827 159.923 22.9549 159.923 21.5564Z" fill="#00529B"/>
<path fill-rule="evenodd" clip-rule="evenodd" d="M162.96 21.6918C163.432 21.6241 163.725 21.2632 163.725 20.7896C163.725 20.4738 163.567 20.1805 163.297 20.0226C163.05 19.8873 162.735 19.8647 162.442 19.8647H161.43V23.0678H161.835V21.7144H162.532L163.477 23.0678H163.95L162.96 21.6918ZM161.857 20.2256H162.487C162.87 20.2256 163.365 20.2933 163.365 20.7896C163.365 21.3084 162.915 21.376 162.51 21.376H161.857V20.2256Z" fill="#00529B"/>
<path fill-rule="evenodd" clip-rule="evenodd" d="M72.15 30.8948C71.97 30.8948 71.745 30.6692 71.745 30.4887V22.4136C71.745 21.1053 72.8025 20.1579 74.1075 20.1579C76.2 20.2933 78.045 21.6015 78.4725 23.4286C78.6975 24.1504 78.9225 25.7293 78.6075 27.579C78.2925 29.4511 76.38 30.8722 74.04 30.8722H72.15V30.8948ZM72.24 32.406C72.015 32.406 71.745 32.6542 71.745 32.8797V42.376C71.745 43.9098 73.0275 45.1504 74.625 45.1504C77.235 45.173 79.4175 43.4812 79.9575 41.3158C80.205 40.4812 80.5425 38.8797 80.1375 36.7143C79.755 34.5263 77.3925 32.406 74.58 32.406H72.24ZM78.765 31.391C81.5325 31.6842 87.2925 35.1354 85.065 41.203C83.1975 46.3008 77.1675 47.4286 71.52 46.6617C69.5625 46.4136 64.32 46.8872 64.32 46.8872C64.0725 46.8872 63.8925 46.6391 63.8925 46.3459C63.8925 46.1429 63.9825 45.9173 64.14 45.8496C64.995 45.6015 65.7375 45.7594 66.39 45.1053C67.065 44.4511 67.155 43.6391 67.2 42.8496L67.1775 22.6842C67.155 21.8948 67.0425 21.0827 66.39 20.4286C65.715 19.7745 64.995 19.9324 64.1175 19.6842C63.9825 19.594 63.87 19.391 63.87 19.188C63.87 18.8948 64.0725 18.6466 64.32 18.6466C64.32 18.6466 69.5625 19.1203 71.52 18.8496C77.19 18.1053 82.3425 18.9624 83.355 24.4887C84.03 28.1429 81.42 30.4211 78.8325 31.391H78.765Z" fill="#00529B"/>
<path fill-rule="evenodd" clip-rule="evenodd" d="M95.46 31.7292C95.28 31.7292 95.055 31.5037 95.055 31.3007V22.5939C95.055 21.1954 96.135 20.1578 97.485 20.1578C99.645 20.2931 101.558 21.7368 102.008 23.6992C102.233 24.4886 102.503 25.7067 102.165 27.6916C101.828 29.6992 99.87 31.5488 97.44 31.7067H95.46V31.7292ZM106.08 46.7067C101.895 41.6089 101.648 40.3232 97.71 33.8495C97.215 33.0149 96.2025 32.9022 95.415 32.8119C95.2125 32.8119 95.055 32.9698 95.055 33.1728V42.827C95.0775 43.639 95.19 44.451 95.8425 45.1052C96.5175 45.7593 97.2375 45.6014 98.115 45.8495C98.25 45.9398 98.3625 46.1428 98.3625 46.3458C98.3625 46.639 98.16 46.8871 97.9125 46.8871C97.9125 46.8871 95.055 46.639 92.7825 46.5939C90.51 46.6165 87.675 46.8871 87.675 46.8871C87.4275 46.8871 87.225 46.639 87.225 46.3458C87.225 46.1428 87.315 45.9172 87.4725 45.8495C88.3275 45.6014 89.07 45.7593 89.7225 45.1052C90.3975 44.451 90.4875 43.639 90.5325 42.827L90.51 22.6616C90.4875 21.8721 90.375 21.0601 89.7225 20.3834C89.0475 19.7292 88.3275 19.9097 87.45 19.639C87.315 19.5488 87.2025 19.3458 87.2025 19.1428C87.2025 18.8495 87.405 18.6014 87.6525 18.6014C87.6525 18.6014 92.895 19.0751 94.8525 18.8044C100.523 18.0601 106.778 19.2104 107.408 24.8946C107.903 29.3157 103.83 31.3458 101.243 31.9999C101.535 32.1578 102.683 33.4435 103.38 34.5262C106.035 38.6766 107.745 42.3307 110.715 44.6766C111.188 44.9924 112.875 45.827 113.843 45.0826C114.585 44.5187 114.608 43.6165 114.653 42.8044L114.63 22.639C114.608 21.8495 114.495 21.0149 113.843 20.3608C113.168 19.7067 112.448 19.8871 111.57 19.6165C111.435 19.5262 111.323 19.3232 111.323 19.1202C111.323 18.827 111.525 18.5789 111.773 18.5789C111.773 18.5789 114.608 18.827 116.903 18.8721C119.175 18.8495 122.078 18.5789 122.078 18.5789C122.325 18.5789 122.528 18.827 122.528 19.1202C122.528 19.3232 122.438 19.5488 122.28 19.6165C121.425 19.8871 120.683 19.7292 120.008 20.3608C119.333 21.0149 119.243 21.827 119.22 22.639V42.8044C119.243 43.6165 119.355 44.4285 120.008 45.0826C120.683 45.7368 121.403 45.5789 122.28 45.827C122.415 45.9172 122.528 46.1202 122.528 46.3232C122.528 46.6165 122.325 46.8646 122.078 46.8646C122.078 46.8646 119.175 46.6165 116.903 46.5713C114.63 46.5939 111.795 46.842 111.795 46.842C110.85 46.7292 110.31 46.5713 109.343 46.5488C108.263 46.5262 106.665 46.8195 106.575 46.8195C106.35 46.8871 106.148 46.7969 106.08 46.7067Z" fill="#00529B"/>
<path fill-rule="evenodd" clip-rule="evenodd" d="M152.295 25.0301L155.715 33.579C155.738 33.6241 155.715 33.6467 155.715 33.6918C155.715 33.8722 155.58 34.0076 155.4 34.0076H149.37C149.19 34.0076 149.055 33.8722 149.055 33.6918C149.055 33.6467 149.055 33.6016 149.078 33.5564L152.295 25.0301ZM140.708 45.6467C141.743 45.5113 142.71 44.4512 143.655 42.2632L152.565 18.6016H154.703L164.175 42.2632C164.67 43.3685 164.985 44.0001 165.48 45.1053C166.155 45.7595 166.875 45.579 167.753 45.8497C167.888 45.9399 168 46.1429 168 46.3459C168 46.6392 167.798 46.8873 167.55 46.8873C167.55 46.8873 164.648 46.6392 162.375 46.594C160.103 46.6166 157.268 46.8873 157.268 46.8873C157.02 46.8873 156.818 46.6392 156.818 46.3459C156.818 46.1429 156.908 45.9174 157.065 45.8497C157.583 45.6918 158.078 45.6918 158.505 45.579C159.203 45.3534 159.72 44.6993 159.72 43.9098C159.72 43.7068 159.698 43.5038 159.63 43.3234L156.705 36.0151C156.66 35.8798 156.548 35.8121 156.39 35.8121H148.493C148.358 35.8121 148.2 35.8572 148.155 35.9925L148.133 36.0151L145.568 42.8722C145.568 42.8722 145.433 43.3459 145.433 43.5264C145.41 43.8647 145.455 44.361 145.635 44.6316C145.725 44.7895 145.86 44.9474 146.018 45.1053C146.693 45.7595 147.413 45.579 148.268 45.8497C148.403 45.9399 148.515 46.1429 148.515 46.3459C148.515 46.6392 148.313 46.8873 148.065 46.8873C148.065 46.8873 145.995 46.7068 143.97 46.6392C141.99 46.7068 139.943 46.8873 139.943 46.8873C139.695 46.8873 139.493 46.6392 139.493 46.3459C139.493 46.1429 139.583 45.9174 139.74 45.8497C140.1 45.7369 140.415 45.7143 140.708 45.6467C140.73 45.6692 138.975 45.8722 140.708 45.6467Z" fill="#00529B"/>
<path d="M38.67 21.376C38.67 22.955 37.41 24.2181 35.835 24.2181C34.26 24.2181 33 22.955 33 21.376C33 19.7971 34.26 18.5339 35.835 18.5339C37.41 18.5339 38.67 19.7971 38.67 21.376Z" fill="#009EE3"/>
<path d="M38.67 27.0828C38.67 28.6618 37.41 29.9249 35.835 29.9249C34.26 29.9249 33 28.6618 33 27.0828C33 25.5039 34.26 24.2407 35.835 24.2407C37.41 24.2407 38.67 25.5039 38.67 27.0828Z" fill="#00B0EB"/>
<path d="M38.67 32.7669C38.67 34.3459 37.41 35.609 35.835 35.609C34.26 35.609 33 34.3459 33 32.7669C33 31.188 34.26 29.9248 35.835 29.9248C37.41 29.9248 38.67 31.188 38.67 32.7669Z" fill="#D4EDFC"/>
<path d="M38.67 38.4512C38.67 40.0302 37.41 41.2933 35.835 41.2933C34.26 41.2933 33 40.0302 33 38.4512C33 36.8723 34.26 35.6091 35.835 35.6091C37.41 35.6091 38.67 36.8948 38.67 38.4512Z" fill="#D4EDFC"/>
<path d="M38.67 44.1578C38.67 45.7367 37.41 46.9999 35.835 46.9999C34.26 46.9999 33 45.7367 33 44.1578C33 42.5788 34.26 41.3157 35.835 41.3157C37.41 41.3157 38.67 42.5788 38.67 44.1578Z" fill="#D4EDFC"/>
<path d="M44.34 21.376C44.34 22.955 43.08 24.2181 41.505 24.2181C39.93 24.2181 38.67 22.955 38.67 21.376C38.67 19.7971 39.93 18.5339 41.505 18.5339C43.08 18.5339 44.34 19.7971 44.34 21.376Z" fill="#009EE3"/>
<path d="M44.34 27.0828C44.34 28.6618 43.08 29.9249 41.505 29.9249C39.93 29.9249 38.67 28.6618 38.67 27.0828C38.67 25.5039 39.93 24.2407 41.505 24.2407C43.08 24.2407 44.34 25.5039 44.34 27.0828Z" fill="#00B0EB"/>
<path d="M44.34 32.7669C44.34 34.3459 43.08 35.609 41.505 35.609C39.93 35.609 38.67 34.3459 38.67 32.7669C38.67 31.188 39.93 29.9248 41.505 29.9248C43.08 29.9248 44.34 31.188 44.34 32.7669Z" fill="#5BC5F2"/>
<path d="M44.34 38.4512C44.34 40.0302 43.08 41.2933 41.505 41.2933C39.93 41.2933 38.67 40.0302 38.67 38.4512C38.67 36.8723 39.93 35.6091 41.505 35.6091C43.08 35.6091 44.34 36.8948 44.34 38.4512Z" fill="#D4EDFC"/>
<path d="M44.34 44.1578C44.34 45.7367 43.08 46.9999 41.505 46.9999C39.93 46.9999 38.67 45.7367 38.67 44.1578C38.67 42.5788 39.93 41.3157 41.505 41.3157C43.08 41.3157 44.34 42.5788 44.34 44.1578Z" fill="#D4EDFC"/>
<path d="M50.01 21.376C50.01 22.955 48.75 24.2181 47.175 24.2181C45.6 24.2181 44.34 22.955 44.34 21.376C44.34 19.7971 45.6 18.5339 47.175 18.5339C48.75 18.5339 50.01 19.7971 50.01 21.376Z" fill="#009EE3"/>
<path d="M50.01 27.0828C50.01 28.6618 48.75 29.9249 47.175 29.9249C45.6 29.9249 44.34 28.6618 44.34 27.0828C44.34 25.5039 45.6 24.2407 47.175 24.2407C48.75 24.2407 50.01 25.5039 50.01 27.0828Z" fill="#00B0EB"/>
<path d="M50.01 32.7669C50.01 34.3459 48.75 35.609 47.175 35.609C45.6 35.609 44.34 34.3459 44.34 32.7669C44.34 31.188 45.6 29.9248 47.175 29.9248C48.75 29.9248 50.01 31.188 50.01 32.7669Z" fill="#5BC5F2"/>
<path d="M50.01 38.4512C50.01 40.0302 48.75 41.2933 47.175 41.2933C45.6 41.2933 44.34 40.0302 44.34 38.4512C44.34 36.8723 45.6 35.6091 47.175 35.6091C48.75 35.6091 50.01 36.8948 50.01 38.4512Z" fill="#A1DAF8"/>
<path d="M50.01 44.1578C50.01 45.7367 48.75 46.9999 47.175 46.9999C45.6 46.9999 44.34 45.7367 44.34 44.1578C44.34 42.5788 45.6 41.3157 47.175 41.3157C48.75 41.3157 50.01 42.5788 50.01 44.1578Z" fill="#D4EDFC"/>
<path d="M55.7025 21.376C55.7025 22.955 54.4425 24.2181 52.8675 24.2181C51.2925 24.2181 50.0325 22.955 50.0325 21.376C50.0325 19.7971 51.2925 18.5339 52.8675 18.5339C54.4425 18.5339 55.7025 19.7971 55.7025 21.376Z" fill="#009EE3"/>
<path d="M55.7025 27.0828C55.7025 28.6618 54.4425 29.9249 52.8675 29.9249C51.2925 29.9249 50.0325 28.6392 50.0325 27.0828C50.0325 25.5039 51.2925 24.2407 52.8675 24.2407C54.4425 24.2407 55.7025 25.5039 55.7025 27.0828Z" fill="#00B0EB"/>
<path d="M55.7025 32.7669C55.7025 34.3459 54.4425 35.609 52.8675 35.609C51.2925 35.609 50.0325 34.3459 50.0325 32.7669C50.0325 31.188 51.2925 29.9248 52.8675 29.9248C54.4425 29.9248 55.7025 31.188 55.7025 32.7669Z" fill="#5BC5F2"/>
<path d="M55.7025 38.4512C55.7025 40.0302 54.4425 41.2933 52.8675 41.2933C51.2925 41.2933 50.0325 40.0302 50.0325 38.4512C50.0325 36.8723 51.2925 35.6091 52.8675 35.6091C54.4425 35.6091 55.7025 36.8948 55.7025 38.4512Z" fill="#D4EDFC"/>
<path d="M55.7025 44.1578C55.7025 45.7367 54.4425 46.9999 52.8675 46.9999C51.2925 46.9999 50.0325 45.7142 50.0325 44.1578C50.0325 42.5788 51.2925 41.3157 52.8675 41.3157C54.4425 41.3157 55.7025 42.5788 55.7025 44.1578Z" fill="#D4EDFC"/>
<path d="M61.3725 21.376C61.3725 22.955 60.1125 24.2181 58.5375 24.2181C56.9625 24.2181 55.7025 22.955 55.7025 21.376C55.7025 19.7971 56.9625 18.5339 58.5375 18.5339C60.1125 18.5339 61.3725 19.7971 61.3725 21.376Z" fill="#009EE3"/>
<path d="M61.3725 27.0828C61.3725 28.6618 60.1125 29.9249 58.5375 29.9249C56.9625 29.9249 55.7025 28.6618 55.7025 27.0828C55.7025 25.5039 56.9625 24.2407 58.5375 24.2407C60.1125 24.2407 61.3725 25.5039 61.3725 27.0828Z" fill="#00B0EB"/>
<path d="M61.3725 32.7669C61.3725 34.3459 60.1125 35.609 58.5375 35.609C56.9625 35.609 55.7025 34.3459 55.7025 32.7669C55.7025 31.188 56.9625 29.9248 58.5375 29.9248C60.1125 29.9248 61.3725 31.188 61.3725 32.7669Z" fill="#D4EDFC"/>
<path d="M61.3725 38.4512C61.3725 40.0302 60.1125 41.2933 58.5375 41.2933C56.9625 41.2933 55.7025 40.0302 55.7025 38.4512C55.7025 36.8723 56.9625 35.6091 58.5375 35.6091C60.1125 35.6091 61.3725 36.8948 61.3725 38.4512Z" fill="#D4EDFC"/>
<path d="M61.3725 44.1578C61.3725 45.7367 60.1125 46.9999 58.5375 46.9999C56.9625 46.9999 55.7025 45.7367 55.7025 44.1578C55.7025 42.5788 56.9625 41.3157 58.5375 41.3157C60.1125 41.3157 61.3725 42.5788 61.3725 44.1578Z" fill="#D4EDFC"/>
</g>
<defs>
<clipPath id="clip0_317_75">
<rect width="200" height="64" fill="white"/>
</clipPath>
</defs>
</svg>
