<svg width="200" height="64" viewBox="0 0 200 64" fill="none" xmlns="http://www.w3.org/2000/svg">
<path d="M126.4 9C130.03 9 133 11.9571 133 15.5714V48.3629C133 52.0429 130.03 55 126.4 55H73.6C69.97 55 67 52.0429 67 48.4286V15.5714C67 11.9571 69.97 9 73.6 9H126.4ZM126.4 13.6657H73.534C72.544 13.7314 71.752 14.5857 71.818 15.5714V48.4286C71.818 49.4143 72.61 50.2686 73.6 50.2686H126.4C127.456 50.2029 128.248 49.3486 128.182 48.3629V15.5057C128.182 14.52 127.39 13.6657 126.4 13.6657ZM87.196 16.9514C95.05 16.9514 99.34 21.8143 99.34 31.8686L99.3364 32.3863C99.2187 40.7979 96.1865 46.9842 87.196 47.0486H76.108V16.9514H87.196ZM115.114 16.8857C123.27 16.8857 123.734 23.0375 123.759 24.1319L123.76 24.2457C123.694 27.5314 121.582 30.3571 118.48 31.2771C123.958 32.46 124.882 36.4686 124.882 38.5057C124.882 46.6438 116.731 46.9693 113.568 46.9823L102.508 46.9829V16.8857H115.114ZM84.82 21.6829H83.368V42.1857H85.942C89.77 42.1857 92.014 39.0971 92.014 32.46L92.0095 31.6531C91.9428 25.9985 91.0603 21.6829 84.82 21.6829ZM112.87 34.4314H109.702V42.1857L112.872 42.1852C114.226 42.1757 117.556 41.9886 117.556 38.3086L117.552 38.117C117.484 36.4423 116.493 34.4314 112.87 34.4314ZM112.012 21.6171H109.768V28.8457H112.606C115.114 28.8457 116.566 27.2029 116.566 25.2314C116.566 22.7343 115.246 21.6171 112.012 21.6171Z" fill="white"/>
</svg>
