<svg width="60" height="60" viewBox="0 0 60 60" fill="none" xmlns="http://www.w3.org/2000/svg">
<g clip-path="url(#clip0_405_6)">
<path d="M6.72076 17.6539H0V42.3884H6.72076C9.67366 42.3461 12.489 41.1395 14.5528 39.0333C19.2627 33.9319 19.2627 26.0681 14.5528 20.9667C12.4784 18.8711 9.66308 17.6751 6.72076 17.6539ZM30.0794 43.5421C30.0794 44.2724 29.4655 44.8651 28.7352 44.8545C28.0155 44.8545 27.4334 44.2935 27.4122 43.5844V16.532C27.4017 15.8017 27.9838 15.1879 28.7141 15.1773C29.4549 15.1773 30.0582 15.7911 30.0582 16.532V43.5421H30.0794ZM60 35.6253V0H0V15.1773H6.72076C10.3404 15.1773 13.8014 16.6061 16.3627 19.1568C22.2156 25.2002 22.2156 34.7892 16.3627 40.8326C13.812 43.3939 10.3404 44.8439 6.72076 44.8545H0V60H60V41.0866C59.7566 41.3512 59.5131 41.6052 59.2485 41.8592C54.327 46.3891 46.7596 46.3891 41.8381 41.8592C39.4144 39.5414 38.0808 36.3027 38.1443 32.9476V16.1087C38.1337 15.389 38.6947 14.7857 39.4144 14.7645C40.1552 14.7645 40.7585 15.3678 40.7585 16.1087V32.9476C40.6633 35.6677 41.7534 38.3031 43.7432 40.1658C47.5851 43.6691 53.4592 43.6691 57.2905 40.1658C58.6029 38.9381 59.5449 37.3611 59.9894 35.6147" fill="black"/>
</g>
<defs>
<clipPath id="clip0_405_6">
<rect width="60" height="60" fill="white"/>
</clipPath>
</defs>
</svg>
