<svg width="85" height="115" viewBox="0 0 85 115" fill="none" xmlns="http://www.w3.org/2000/svg">
<g clip-path="url(#clip0_317_265)">
<path d="M42.5015 89.6385C42.2974 89.6385 42.0933 89.5852 41.9099 89.4786L0.591613 65.6034C0.224813 65.3932 0 64.9994 0 64.579V50.4268C0 50.0034 0.224813 49.6126 0.591613 49.4024L10.2911 43.7978C10.8561 43.4721 11.5808 43.6645 11.9062 44.23C12.2316 44.7955 12.0393 45.5209 11.4743 45.8466L2.36645 51.1107V63.8951L42.5015 87.0864L82.6365 63.8951V50.4268C82.6365 49.7725 83.166 49.2425 83.8197 49.2425C84.4735 49.2425 85.003 49.7725 85.003 50.4268V64.579C85.003 65.0024 84.7781 65.3932 84.4113 65.6034L43.0931 89.4786C42.9097 89.5852 42.7056 89.6385 42.5015 89.6385Z" fill="black"/>
<path d="M42.5015 75.4833C42.0933 75.4833 41.694 75.2701 41.4751 74.8912C41.1497 74.3257 41.3419 73.6003 41.9069 73.2746L49.4766 68.9017C50.0416 68.576 50.7663 68.7684 51.0917 69.3339C51.4171 69.8994 51.2248 70.6248 50.6598 70.9505L43.0902 75.3234C42.9038 75.43 42.6997 75.4833 42.4985 75.4833H42.5015Z" fill="#FF00FF"/>
<path d="M42.5015 115C42.2974 115 42.0933 114.947 41.9099 114.84L0.591613 90.9679C0.224813 90.7577 0 90.3639 0 89.9435V75.7913C0 75.3679 0.224813 74.9771 0.591613 74.7669L10.2911 69.1623C10.8561 68.8366 11.5808 69.029 11.9062 69.5945C12.2316 70.16 12.0393 70.8854 11.4743 71.2111L2.36645 76.4752V89.2596L42.5015 112.451L82.6365 89.2596V75.7913C82.6365 75.137 83.166 74.607 83.8197 74.607C84.4735 74.607 85.003 75.137 85.003 75.7913V89.9435C85.003 90.3669 84.7781 90.7577 84.4113 90.9679L43.0931 114.843C42.9097 114.95 42.7056 115.003 42.5015 115.003V115Z" fill="black"/>
<path d="M42.5015 100.848C42.0933 100.848 41.694 100.635 41.4751 100.256C41.1497 99.6902 41.3419 98.9648 41.9069 98.6391L49.4766 94.2662C50.0416 93.9405 50.7663 94.1329 51.0917 94.6984C51.4171 95.2639 51.2248 95.9893 50.6598 96.315L43.0902 100.688C42.9038 100.795 42.6997 100.848 42.4985 100.848H42.5015Z" fill="black"/>
<path d="M74.1202 46.0037C73.712 46.0037 73.3127 45.7905 73.0938 45.4115C72.7684 44.846 72.9607 44.1206 73.5257 43.795L82.6335 38.5308V25.7465L42.5015 2.55223L2.36645 25.7435V38.5279L11.4743 43.792C12.0393 44.1177 12.2346 44.843 11.9062 45.4085C11.5779 45.974 10.8561 46.1694 10.2911 45.8408L0.591613 40.2391C0.224813 40.0289 0 39.6352 0 39.2147V25.0625C0 24.6392 0.224813 24.2483 0.591613 24.0381L41.9099 0.159977C42.2767 -0.0502333 42.7263 -0.0502333 43.0931 0.159977L84.4113 24.0352C84.7781 24.2454 85.003 24.6391 85.003 25.0596V39.2118C85.003 39.6352 84.7781 40.026 84.4113 40.2362L74.7118 45.8408C74.5255 45.9474 74.3214 46.0007 74.1202 46.0007V46.0037Z" fill="black"/>
<path d="M42.5015 64.2741C42.2974 64.2741 42.0933 64.2208 41.9099 64.1142L10.2911 45.8436C9.72613 45.5179 9.5309 44.7926 9.85924 44.2271C10.1846 43.6616 10.9094 43.4662 11.4743 43.7948L42.5015 61.7249L73.5286 43.7948C74.0936 43.4691 74.8184 43.6616 75.1437 44.2271C75.4691 44.7926 75.2769 45.5179 74.7119 45.8436L43.0931 64.1142C42.9097 64.2208 42.7056 64.2741 42.5015 64.2741Z" fill="black"/>
<path d="M42.5015 50.122C42.0933 50.122 41.694 49.9088 41.4751 49.5298C41.1497 48.9643 41.3419 48.2389 41.9069 47.9133L49.4737 43.5403C50.0387 43.2117 50.7634 43.4071 51.0888 43.9726C51.4142 44.5381 51.2219 45.2634 50.6569 45.5891L43.0902 49.9621C42.9038 50.0687 42.6997 50.122 42.4985 50.122H42.5015Z" fill="black"/>
</g>
<defs>
<clipPath id="clip0_317_265">
<rect width="85" height="115" fill="white"/>
</clipPath>
</defs>
</svg>
