<svg width="200" height="64" viewBox="0 0 200 64" fill="none" xmlns="http://www.w3.org/2000/svg">
<g clip-path="url(#clip0_317_60)">
<path d="M150 31.5337C150 27.8145 146.651 22.7578 138.439 19.4546L135.577 25.8081C140.488 27.1457 143.685 29.3234 145.184 31.7213C146.548 33.8826 146.428 37.0145 145.591 38.7273C146.675 37.8628 150 34.9103 150 31.5337Z" fill="#004381"/>
<path d="M66.7815 53.3623L62.5 44.8272C97.309 56.2345 130.558 52.1093 144.915 41.0763C148.003 38.7086 149.244 37.0976 150 35.8364C149.284 38.1634 147.573 42.728 145.416 45.649C141.739 50.604 126.667 58.0001 101.24 58.0001C90.7276 58.0001 78.8063 56.6413 66.7815 53.3623Z" fill="#7EA2D1"/>
<path fill-rule="evenodd" clip-rule="evenodd" d="M101.134 31.7037C100.45 31.7037 100.044 31.958 99.1778 32.5381C98.0249 33.3011 96.22 34.4217 93.4768 34.4217C87.1795 34.4217 83.4186 29.1843 83.4186 20.7917C83.4186 14.2827 87.0285 9.53803 91.5845 9.53803C95.3056 9.53803 96.6652 11.962 97.7386 13.5197C98.4383 14.5529 99.3845 15.1013 100.641 15.0695C102.326 15.0218 103.479 13.7582 103.4 12.0256C103.273 9.01349 98.9711 5 91.7514 5C86.9251 5 82.8462 6.73256 79.9678 9.99899C77.2963 13.0349 75.8253 17.4935 75.8253 22.1666C75.8253 26.8318 77.2008 31.2904 79.6896 34.3422C82.544 37.8471 86.7581 39.6909 91.8946 39.6909C95.9019 39.6909 98.5656 38.459 100.1 37.4259C101.873 36.2258 103.018 34.6601 103.018 33.4362C103.018 32.2997 102.088 31.7037 101.134 31.7037ZM70.6332 5.89807C71.3965 5.89807 71.7941 6.27955 71.7782 7.05046L71.7384 8.66381C71.6987 10.0228 71.0149 10.7461 69.6552 10.7461H57.3707V18.2088H67.5879C68.3592 18.2088 68.7567 18.5823 68.7329 19.3532L68.6931 20.9666C68.6534 22.3256 67.9696 23.0568 66.6099 23.0568L57.3707 23.0488V33.8892H71.476C72.2473 33.8892 72.6369 34.2628 72.621 35.0337L72.5812 36.7026C72.5415 38.0696 71.8577 38.7928 70.498 38.7928H51.4551C50.5089 38.7928 50 38.2842 50 37.3384V7.35246C50 6.40671 50.5089 5.89807 51.4551 5.89807H70.6332ZM129.742 5.89807C130.513 5.89807 130.903 6.27955 130.887 7.05046L130.847 8.66381C130.815 10.0228 130.124 10.7461 128.764 10.7461H116.479V18.2088H126.697C127.468 18.2088 127.866 18.5823 127.85 19.3532L127.802 20.9666C127.77 22.3256 127.086 23.0568 125.727 23.0568L116.479 23.0488V33.8892H130.585C131.356 33.8892 131.754 34.2628 131.73 35.0337L131.69 36.7026C131.658 38.0696 130.966 38.7928 129.607 38.7928H110.564C109.626 38.7928 109.117 38.2842 109.117 37.3384V7.35246C109.117 6.40671 109.626 5.89807 110.564 5.89807H129.742Z" fill="#4D4D4D"/>
</g>
<defs>
<clipPath id="clip0_317_60">
<rect width="200" height="64" fill="white"/>
</clipPath>
</defs>
</svg>
