<svg width="200" height="64" viewBox="0 0 200 64" fill="none" xmlns="http://www.w3.org/2000/svg">
<g clip-path="url(#clip0_317_69)">
<path d="M110.381 18.3635V44.9065H115.958V34.7002C115.958 32.5163 115.886 29.8142 115.635 27.4404C116.427 29.4288 117.185 31.3498 118.122 33.45L123.419 44.9109H129.212L129.19 18.3635H123.613V28.4951C123.613 30.6232 123.687 33.3 123.893 35.6626C123.168 33.6685 122.11 31.2372 121.463 29.7124L116.242 18.3635H110.381ZM28.8125 18.3855L33.6372 31.657L28.8125 44.9285H32.927L37.7517 31.657L32.927 18.3855H28.8125ZM37.2218 18.3855L42.0444 31.657L37.2218 44.9285H41.3363L46.1611 31.657L41.3363 18.3855H37.2218ZM45.6311 18.3855L50.4559 31.657L45.6311 44.9285H49.7456L54.5704 31.657L49.7456 18.3855H45.6311ZM54.0404 18.3855L58.863 31.657L54.0404 44.9285H58.1549L62.9797 31.657L58.1549 18.3855H54.0404ZM70.793 18.3855V44.9285H76.3985V33.4324H83.385V28.6138H76.3985V23.2393H84.8849L85.6039 18.3855H70.793ZM88.0075 18.3855V37.2029C88.0075 44.302 93.8802 45.3635 97.3823 45.3635C103.187 45.3635 106.794 42.2248 106.794 37.1699V18.3855H100.991V35.9746C100.991 39.0522 99.9139 40.3647 97.3823 40.3647C94.9899 40.3647 93.846 39.7057 93.846 35.9746V18.3855H88.0075ZM132.937 18.3855V44.9285H138.597V18.3855H132.937ZM146.912 18.3855L138.815 30.8308L138.753 30.9187L146.749 44.845L146.802 44.9285H153.672L145.162 30.8528L153.472 18.3855H146.912ZM156.091 18.3855V44.9285H171.812V39.9011L161.774 39.9297V33.54H169.416V28.6797H161.701V23.2393H170.797L171.566 18.3855H156.091Z" fill="#FF0000"/>
</g>
<defs>
<clipPath id="clip0_317_69">
<rect width="200" height="64" fill="white"/>
</clipPath>
</defs>
</svg>
