<svg width="85" height="115" viewBox="0 0 85 115" fill="none" xmlns="http://www.w3.org/2000/svg">
<path d="M42.5015 89.636C42.2974 89.636 42.0933 89.5827 41.9099 89.4762L0.591613 65.601C0.224813 65.3908 0 64.997 0 64.5766V50.4244C0 50.001 0.224813 49.6102 0.591613 49.4L10.2911 43.7953C10.8561 43.4696 11.5808 43.6621 11.9062 44.2276C12.2316 44.7931 12.0393 45.5185 11.4743 45.8441L2.36645 51.1083V63.8926L42.5015 87.0839L82.6365 63.8926V50.4244C82.6365 49.77 83.166 49.2401 83.8197 49.2401C84.4735 49.2401 85.003 49.77 85.003 50.4244V64.5766C85.003 65 84.7781 65.3908 84.4113 65.601L43.0931 89.4762C42.9097 89.5827 42.7056 89.636 42.5015 89.636Z" fill="white"/>
<path d="M42.5016 75.4809C42.0933 75.4809 41.694 75.2677 41.4751 74.8887C41.1497 74.3232 41.342 73.5979 41.907 73.2722L49.4767 68.8992C50.0417 68.5735 50.7664 68.766 51.0918 69.3315C51.4172 69.897 51.2249 70.6223 50.6599 70.948L43.0902 75.321C42.9039 75.4276 42.6998 75.4809 42.4986 75.4809H42.5016Z" fill="#FF00FF"/>
<path d="M42.5015 114.998C42.2974 114.998 42.0933 114.944 41.9099 114.838L0.591613 90.9655C0.224813 90.7553 0 90.3615 0 89.9411V75.7889C0 75.3655 0.224813 74.9747 0.591613 74.7645L10.2911 69.1598C10.8561 68.8342 11.5808 69.0266 11.9062 69.5921C12.2316 70.1576 12.0393 70.883 11.4743 71.2086L2.36645 76.4728V89.2571L42.5015 112.448L82.6365 89.2571V75.7889C82.6365 75.1345 83.166 74.6046 83.8197 74.6046C84.4735 74.6046 85.003 75.1345 85.003 75.7889V89.9411C85.003 90.3645 84.7781 90.7553 84.4113 90.9655L43.0931 114.841C42.9097 114.947 42.7056 115.001 42.5015 115.001V114.998Z" fill="white"/>
<path d="M42.5016 100.845C42.0933 100.845 41.694 100.632 41.4751 100.253C41.1497 99.6877 41.342 98.9624 41.907 98.6367L49.4767 94.2637C50.0417 93.938 50.7664 94.1305 51.0918 94.696C51.4172 95.2615 51.2249 95.9868 50.6599 96.3125L43.0902 100.685C42.9039 100.792 42.6998 100.845 42.4986 100.845H42.5016Z" fill="white"/>
<path d="M74.1202 46.0012C73.712 46.0012 73.3127 45.788 73.0938 45.4091C72.7684 44.8436 72.9607 44.1182 73.5257 43.7925L82.6335 38.5284V25.744L42.5015 2.54979L2.36645 25.7411V38.5254L11.4743 43.7896C12.0393 44.1152 12.2346 44.8406 11.9062 45.4061C11.5779 45.9716 10.8561 46.167 10.2911 45.8384L0.591613 40.2367C0.224813 40.0265 0 39.6327 0 39.2123V25.0601C0 24.6367 0.224813 24.2459 0.591613 24.0357L41.9099 0.157536C42.2767 -0.0526747 42.7263 -0.0526747 43.0931 0.157536L84.4113 24.0327C84.7781 24.2429 85.003 24.6367 85.003 25.0571V39.2093C85.003 39.6327 84.7781 40.0235 84.4113 40.2337L74.7118 45.8384C74.5255 45.945 74.3214 45.9982 74.1202 45.9982V46.0012Z" fill="white"/>
<path d="M42.5015 64.2716C42.2974 64.2716 42.0933 64.2183 41.9099 64.1117L10.2911 45.8412C9.72613 45.5155 9.5309 44.7901 9.85924 44.2246C10.1846 43.6591 10.9094 43.4637 11.4743 43.7924L42.5015 61.7224L73.5286 43.7924C74.0936 43.4667 74.8184 43.6591 75.1437 44.2246C75.4691 44.7901 75.2769 45.5155 74.7119 45.8412L43.0931 64.1117C42.9097 64.2183 42.7056 64.2716 42.5015 64.2716Z" fill="white"/>
<path d="M42.5016 50.1195C42.0933 50.1195 41.694 49.9063 41.4751 49.5274C41.1497 48.9619 41.342 48.2365 41.907 47.9108L49.4737 43.5379C50.0387 43.2092 50.7634 43.4046 51.0888 43.9701C51.4142 44.5356 51.2219 45.261 50.6569 45.5867L43.0902 49.9596C42.9039 50.0662 42.6998 50.1195 42.4986 50.1195H42.5016Z" fill="white"/>
</svg>
