<svg width="102" height="102" viewBox="0 0 102 102" fill="none" xmlns="http://www.w3.org/2000/svg">
<path d="M32.6097 28.4354C31.9537 28.4354 31.4224 27.9042 31.4224 27.2485V1.18691C31.4224 0.531142 31.9537 0 32.6097 0C33.2657 0 33.797 0.531142 33.797 1.18691V27.2485C33.797 27.9042 33.2657 28.4354 32.6097 28.4354Z" fill="white"/>
<path d="M27.255 33.7527H1.18732C0.531327 33.7527 0 33.2216 0 32.5658C0 31.91 0.531327 31.3789 1.18732 31.3789H27.255C27.911 31.3789 28.4423 31.91 28.4423 32.5658C28.4423 33.2216 27.911 33.7527 27.255 33.7527Z" fill="white"/>
<path d="M32.6097 28.4354C31.9537 28.4354 31.4224 27.9042 31.4224 27.2485V1.18691C31.4224 0.531142 31.9537 0 32.6097 0C33.2657 0 33.797 0.531142 33.797 1.18691V27.2485C33.797 27.9042 33.2657 28.4354 32.6097 28.4354Z" fill="white"/>
<path d="M69.39 28.4681C68.734 28.4681 68.2026 27.9369 68.2026 27.2811V1.22255C68.2026 0.566786 68.734 0.0356445 69.39 0.0356445C70.046 0.0356445 70.5773 0.566786 70.5773 1.22255V27.2811C70.5773 27.9369 70.046 28.4681 69.39 28.4681Z" fill="white"/>
<path d="M64.0353 33.7854H37.9676C37.3116 33.7854 36.7803 33.2543 36.7803 32.5985C36.7803 31.9428 37.3116 31.4116 37.9676 31.4116H64.0353C64.6913 31.4116 65.2226 31.9428 65.2226 32.5985C65.2226 33.2543 64.6913 33.7854 64.0353 33.7854Z" fill="#FF00FF"/>
<path d="M69.39 28.4681C68.734 28.4681 68.2026 27.9369 68.2026 27.2811V1.22255C68.2026 0.566786 68.734 0.0356445 69.39 0.0356445C70.046 0.0356445 70.5773 0.566786 70.5773 1.22255V27.2811C70.5773 27.9369 70.046 28.4681 69.39 28.4681Z" fill="white"/>
<path d="M100.813 33.8211H74.7449C74.0889 33.8211 73.5576 33.2899 73.5576 32.6342C73.5576 31.9784 74.0889 31.4473 74.7449 31.4473H100.813C101.469 31.4473 102 31.9784 102 32.6342C102 33.2899 101.469 33.8211 100.813 33.8211Z" fill="white"/>
<path d="M32.6097 65.2C31.9537 65.2 31.4224 64.6688 31.4224 64.0131V37.9545C31.4224 37.2987 31.9537 36.7676 32.6097 36.7676C33.2657 36.7676 33.797 37.2987 33.797 37.9545V64.0131C33.797 64.6688 33.2657 65.2 32.6097 65.2Z" fill="#FF00FF"/>
<path d="M27.255 70.5171H1.18732C0.531327 70.5171 0 69.986 0 69.3302C0 68.6745 0.531327 68.1433 1.18732 68.1433H27.255C27.911 68.1433 28.4423 68.6745 28.4423 69.3302C28.4423 69.986 27.911 70.5171 27.255 70.5171Z" fill="white"/>
<path d="M69.39 65.2325C68.734 65.2325 68.2026 64.7013 68.2026 64.0455V37.987C68.2026 37.3312 68.734 36.8 69.39 36.8C70.046 36.8 70.5773 37.3312 70.5773 37.987V64.0455C70.5773 64.7013 70.046 65.2325 69.39 65.2325Z" fill="#FF00FF"/>
<path d="M64.0353 70.5528H37.9676C37.3116 70.5528 36.7803 70.0216 36.7803 69.3659C36.7803 68.7101 37.3116 68.179 37.9676 68.179H64.0353C64.6913 68.179 65.2226 68.7101 65.2226 69.3659C65.2226 70.0216 64.6913 70.5528 64.0353 70.5528Z" fill="#FF00FF"/>
<path d="M100.813 70.5855H74.7449C74.0889 70.5855 73.5576 70.0543 73.5576 69.3986C73.5576 68.7428 74.0889 68.2117 74.7449 68.2117H100.813C101.469 68.2117 102 68.7428 102 69.3986C102 70.0543 101.469 70.5855 100.813 70.5855Z" fill="#FF00FF"/>
<path d="M32.6097 101.964C31.9537 101.964 31.4224 101.433 31.4224 100.777V74.7189C31.4224 74.0631 31.9537 73.532 32.6097 73.532C33.2657 73.532 33.797 74.0631 33.797 74.7189V100.777C33.797 101.433 33.2657 101.964 32.6097 101.964Z" fill="white"/>
<path d="M69.39 102C68.734 102 68.2026 101.469 68.2026 100.813V74.7516C68.2026 74.0958 68.734 73.5647 69.39 73.5647C70.046 73.5647 70.5773 74.0958 70.5773 74.7516V100.813C70.5773 101.469 70.046 102 69.39 102Z" fill="#FF00FF"/>
</svg>
