<svg width="70" height="77" viewBox="0 0 70 77" fill="none" xmlns="http://www.w3.org/2000/svg">
<g clip-path="url(#clip0_317_308)">
<path d="M8.47089 65.1073C3.79831 65.1073 0 61.2684 0 56.5524C0 51.8365 3.80127 47.9976 8.47089 47.9976C13.1405 47.9976 16.9418 51.8365 16.9418 56.5524C16.9418 61.2684 13.1405 65.1073 8.47089 65.1073ZM8.47089 50.3809C5.1038 50.3809 2.36287 53.149 2.36287 56.5495C2.36287 59.9499 5.1038 62.7181 8.47089 62.7181C11.838 62.7181 14.5789 59.9499 14.5789 56.5495C14.5789 53.149 11.838 50.3809 8.47089 50.3809Z" fill="black"/>
<path d="M19.4346 36.1943C14.765 36.1943 10.9637 32.3553 10.9637 27.6394C10.9637 22.9234 14.765 19.0845 19.4346 19.0845C24.1042 19.0845 27.9055 22.9234 27.9055 27.6394C27.9055 32.3553 24.1042 36.1943 19.4346 36.1943ZM19.4346 21.4678C16.0675 21.4678 13.3266 24.2359 13.3266 27.6364C13.3266 31.0369 16.0675 33.805 19.4346 33.805C22.8017 33.805 25.5426 31.0369 25.5426 27.6364C25.5426 24.2359 22.8017 21.4678 19.4346 21.4678Z" fill="black"/>
<path d="M47.795 13.1903C47.3726 13.1903 46.962 12.9606 46.7494 12.5549C46.1085 11.332 45.7688 9.9479 45.7688 8.55489C45.7688 3.83598 49.5701 0 54.2397 0C58.9093 0 62.7106 3.83896 62.7106 8.55489C62.7106 9.21411 62.1819 9.74804 61.5291 9.74804C60.8764 9.74804 60.3477 9.21411 60.3477 8.55489C60.3477 5.15441 57.6068 2.3863 54.2397 2.3863C50.8726 2.3863 48.1317 5.15441 48.1317 8.55489C48.1317 9.57504 48.3709 10.5445 48.8376 11.4393C49.1418 12.021 48.9232 12.7429 48.3473 13.0531C48.1701 13.1485 47.981 13.1933 47.795 13.1933V13.1903Z" fill="black"/>
<path d="M11.0789 50.87C10.9371 50.87 10.7954 50.8461 10.6565 50.7894C10.0481 50.5538 9.74388 49.8647 9.97721 49.2473L15.5418 34.5715C15.7751 33.9571 16.4574 33.6468 17.0688 33.8855C17.6772 34.1211 17.9814 34.8102 17.7481 35.4276L12.1835 50.1034C12.0034 50.5776 11.5544 50.87 11.0789 50.87Z" fill="black"/>
<path d="M31.9194 35.7827C31.7274 35.7827 31.5295 35.735 31.3494 35.6336L25.2473 32.2361C24.6772 31.9169 24.4675 31.1921 24.7836 30.6164C25.0996 30.0407 25.8173 29.8289 26.3874 30.1481L32.4895 33.5456C33.0595 33.8647 33.2692 34.5896 32.9532 35.1653C32.7376 35.559 32.3329 35.7827 31.9165 35.7827H31.9194Z" fill="black"/>
<path d="M61.5291 59.8903C60.0671 59.8903 58.6907 60.2661 57.4916 60.9253L44.4485 43.1205C45.3996 42.0556 45.9814 40.6537 45.9814 39.1115C45.9814 37.3248 45.1987 35.723 43.9701 34.6223L51.8886 16.7758C52.6477 16.9965 53.4333 17.1128 54.2397 17.1128C57.2346 17.1128 60.0346 15.4901 61.5528 12.8801C61.8836 12.3104 61.6945 11.5796 61.1304 11.2485C60.5663 10.9144 59.8426 11.1053 59.5148 11.675C58.422 13.5572 56.4017 14.7295 54.2426 14.7295C53.3772 14.7295 52.5414 14.5505 51.7587 14.1986C51.7528 14.1986 51.7498 14.1926 51.7468 14.1926C51.1502 13.9241 50.4532 14.1926 50.1844 14.7921L41.9173 33.4262C41.3295 33.2293 40.7004 33.116 40.0477 33.116C36.7722 33.116 34.108 35.8065 34.108 39.1145C34.108 42.4225 36.7722 45.1131 40.0477 45.1131C40.9456 45.1131 41.7933 44.9043 42.5553 44.5434L55.5983 62.3511C54.0359 63.9052 53.0612 66.0618 53.0612 68.4481C53.0612 73.167 56.8625 77.003 61.5321 77.003C66.2017 77.003 70.003 73.1641 70.003 68.4481C70.003 63.7322 66.2017 59.8932 61.5321 59.8932L61.5291 59.8903ZM61.5291 74.6137C58.162 74.6137 55.4211 71.8456 55.4211 68.4452C55.4211 65.0447 58.162 62.2766 61.5291 62.2766C64.8962 62.2766 67.6371 65.0447 67.6371 68.4452C67.6371 71.8456 64.8962 74.6137 61.5291 74.6137Z" fill="#FF00FF"/>
</g>
<defs>
<clipPath id="clip0_317_308">
<rect width="70" height="77" fill="white"/>
</clipPath>
</defs>
</svg>
