<svg width="70" height="77" viewBox="0 0 70 77" fill="none" xmlns="http://www.w3.org/2000/svg">
<path d="M8.47089 65.1072C3.79831 65.1072 0 61.2683 0 56.5523C0 51.8364 3.80127 47.9974 8.47089 47.9974C13.1405 47.9974 16.9418 51.8364 16.9418 56.5523C16.9418 61.2683 13.1405 65.1072 8.47089 65.1072ZM8.47089 50.3808C5.1038 50.3808 2.36287 53.1489 2.36287 56.5493C2.36287 59.9498 5.1038 62.7179 8.47089 62.7179C11.838 62.7179 14.5789 59.9498 14.5789 56.5493C14.5789 53.1489 11.838 50.3808 8.47089 50.3808Z" fill="white"/>
<path d="M19.4348 36.1943C14.7651 36.1943 10.9639 32.3553 10.9639 27.6394C10.9639 22.9234 14.7651 19.0845 19.4348 19.0845C24.1044 19.0845 27.9056 22.9234 27.9056 27.6394C27.9056 32.3553 24.1044 36.1943 19.4348 36.1943ZM19.4348 21.4678C16.0677 21.4678 13.3267 24.2359 13.3267 27.6364C13.3267 31.0369 16.0677 33.805 19.4348 33.805C22.8018 33.805 25.5428 31.0369 25.5428 27.6364C25.5428 24.2359 22.8018 21.4678 19.4348 21.4678Z" fill="white"/>
<path d="M47.7947 13.1903C47.3724 13.1903 46.9618 12.9606 46.7491 12.5549C46.1082 11.332 45.7686 9.9479 45.7686 8.55489C45.7686 3.83598 49.5698 0 54.2394 0C58.9091 0 62.7103 3.83896 62.7103 8.55489C62.7103 9.21411 62.1816 9.74804 61.5289 9.74804C60.8762 9.74804 60.3475 9.21411 60.3475 8.55489C60.3475 5.15441 57.6065 2.3863 54.2394 2.3863C50.8724 2.3863 48.1314 5.15441 48.1314 8.55489C48.1314 9.57504 48.3707 10.5445 48.8373 11.4393C49.1416 12.021 48.923 12.7429 48.347 13.0531C48.1698 13.1485 47.9808 13.1933 47.7947 13.1933V13.1903Z" fill="white"/>
<path d="M11.0787 50.87C10.9369 50.87 10.7951 50.8461 10.6563 50.7894C10.0479 50.5538 9.74364 49.8647 9.97697 49.2473L15.5415 34.5715C15.7749 33.9571 16.4571 33.6468 17.0685 33.8855C17.677 34.1211 17.9812 34.8102 17.7479 35.4276L12.1833 50.1034C12.0031 50.5776 11.5542 50.87 11.0787 50.87Z" fill="white"/>
<path d="M31.9194 35.7826C31.7274 35.7826 31.5295 35.7349 31.3494 35.6334L25.2473 32.2359C24.6772 31.9168 24.4675 31.1919 24.7836 30.6162C25.0996 30.0405 25.8173 29.8288 26.3874 30.1479L32.4895 33.5454C33.0595 33.8646 33.2692 34.5894 32.9532 35.1651C32.7376 35.5589 32.3329 35.7826 31.9165 35.7826H31.9194Z" fill="white"/>
<path d="M61.529 59.8903C60.067 59.8903 58.6906 60.2661 57.4915 60.9253L44.4484 43.1205C45.3995 42.0556 45.9813 40.6537 45.9813 39.1115C45.9813 37.3248 45.1986 35.723 43.9699 34.6223L51.8885 16.7758C52.6476 16.9965 53.4332 17.1128 54.2396 17.1128C57.2345 17.1128 60.0345 15.4901 61.5526 12.8801C61.8834 12.3104 61.6944 11.5796 61.1303 11.2485C60.5661 10.9144 59.8425 11.1053 59.5147 11.675C58.4218 13.5572 56.4016 14.7295 54.2425 14.7295C53.3771 14.7295 52.5412 14.5505 51.7585 14.1986C51.7526 14.1986 51.7497 14.1926 51.7467 14.1926C51.1501 13.9241 50.4531 14.1926 50.1843 14.7921L41.9172 33.4262C41.3294 33.2293 40.7003 33.116 40.0476 33.116C36.772 33.116 34.1079 35.8065 34.1079 39.1145C34.1079 42.4225 36.772 45.1131 40.0476 45.1131C40.9455 45.1131 41.7931 44.9043 42.5552 44.5434L55.5982 62.3511C54.0358 63.9052 53.0611 66.0618 53.0611 68.4481C53.0611 73.167 56.8623 77.003 61.532 77.003C66.2016 77.003 70.0028 73.1641 70.0028 68.4481C70.0028 63.7322 66.2016 59.8932 61.532 59.8932L61.529 59.8903ZM61.529 74.6137C58.1619 74.6137 55.421 71.8456 55.421 68.4452C55.421 65.0447 58.1619 62.2766 61.529 62.2766C64.8961 62.2766 67.637 65.0447 67.637 68.4452C67.637 71.8456 64.8961 74.6137 61.529 74.6137Z" fill="#FF00FF"/>
</svg>
