<svg width="77" height="56" viewBox="0 0 77 56" fill="none" xmlns="http://www.w3.org/2000/svg">
<g clip-path="url(#clip0_405_4)">
<path d="M55.8373 49.4788C55.3316 49.0835 54.5993 49.1736 54.207 49.6793C52.504 51.8647 50.0513 53.2538 47.3021 53.5938C42.5507 54.1808 38.0434 51.4723 36.3404 47.0086C36.1109 46.41 35.4395 46.1077 34.8409 46.3373C34.2422 46.5669 33.94 47.2382 34.1696 47.8368C36.0644 52.8062 40.7954 56 46.0089 56C46.532 56 47.058 55.968 47.5869 55.9012C50.9522 55.4856 53.9541 53.7827 56.0407 51.1091C56.4359 50.6034 56.3458 49.8711 55.8402 49.4788H55.8373ZM34.4951 44.4629C35.1373 44.4629 35.6575 43.9398 35.6575 43.3005C35.6517 38.0753 39.5633 33.6523 44.7564 33.0101C47.5056 32.6701 50.2227 33.4198 52.4081 35.1257C52.9138 35.5209 53.6461 35.4308 54.0384 34.9252C54.4307 34.4195 54.3435 33.6872 53.8379 33.2949C51.1643 31.2083 47.8368 30.29 44.4716 30.7056C38.1131 31.4931 33.3239 36.91 33.3326 43.3063C33.3326 43.9485 33.8528 44.4687 34.4951 44.4687V44.4629ZM18.3635 25.3903C18.8604 25.3903 19.3021 25.0736 19.4649 24.6028L21.9902 17.1894C22.1966 16.582 21.874 15.9224 21.2637 15.7131C20.6564 15.5068 19.9967 15.8294 19.7874 16.4396L18.3606 20.6244L16.9337 16.4396C16.7274 15.8323 16.0677 15.5068 15.4574 15.7131C14.85 15.9195 14.5245 16.582 14.7309 17.1894L17.2592 24.6028C17.419 25.0736 17.8607 25.3903 18.3606 25.3903H18.3635ZM31.2548 12.3188L27.3229 0.787545C27.1631 0.316762 26.7213 0 26.2215 0C25.7216 0 25.2828 0.316762 25.1201 0.787545L21.1911 12.3188C20.9847 12.9262 21.3073 13.5859 21.9176 13.7951C22.525 14.0015 23.1846 13.6789 23.3939 13.0686L26.2244 4.76305L29.0549 13.0686C29.2206 13.551 29.671 13.8561 30.1563 13.8561C30.2813 13.8561 30.4062 13.8358 30.5312 13.7951C31.1386 13.5888 31.464 12.9262 31.2577 12.3188H31.2548ZM15.533 12.3188L11.601 0.787545C11.4412 0.316762 10.9995 0 10.4996 0C9.99979 0 9.56098 0.316762 9.39824 0.787545L5.46923 12.3188C5.2629 12.9262 5.58547 13.5859 6.19574 13.7951C6.32071 13.8387 6.44567 13.8561 6.57063 13.8561C7.05594 13.8561 7.50638 13.551 7.67203 13.0686L10.5025 4.76305L13.3331 13.0686C13.5394 13.676 14.1991 14.0015 14.8093 13.7951C15.4167 13.5888 15.7422 12.9262 15.5359 12.3188H15.533ZM2.26674 25.3293C2.3917 25.3729 2.51666 25.3903 2.64162 25.3903C3.12403 25.3903 3.57737 25.0852 3.74302 24.6028L6.2684 17.1894C6.47473 16.582 6.15215 15.9224 5.54188 15.7131C4.93451 15.5068 4.27483 15.8294 4.06559 16.4396L1.54022 23.853C1.33389 24.4604 1.65937 25.1201 2.26674 25.3293ZM34.4602 25.3293C35.0676 25.123 35.3931 24.4604 35.1867 23.853L32.6613 16.4396C32.455 15.8323 31.7924 15.5068 31.1851 15.7131C30.5777 15.9195 30.2522 16.582 30.4585 17.1894L32.9839 24.6028C33.1496 25.0852 33.6 25.3903 34.0853 25.3903C34.2103 25.3903 34.3352 25.37 34.4602 25.3293ZM43.4051 13.7951C44.0125 14.0015 44.6721 13.6789 44.8814 13.0686L47.7119 4.76305L50.5424 13.0686C50.708 13.551 51.1585 13.8561 51.6438 13.8561C51.7688 13.8561 51.8937 13.8358 52.0187 13.7951C52.6261 13.5888 52.9515 12.9262 52.7452 12.3188L48.8133 0.787545C48.6535 0.316762 48.2117 0 47.7119 0C47.212 0 46.7732 0.316762 46.6105 0.787545L42.6815 12.3188C42.4751 12.9262 42.7977 13.5859 43.408 13.7951H43.4051ZM54.1459 16.4396C54.1459 16.4396 54.1343 16.4164 54.1314 16.4048C54.1169 16.3641 54.0965 16.3263 54.0791 16.2885C54.0617 16.2566 54.0471 16.2246 54.0297 16.1955C54.0093 16.1636 53.9861 16.1345 53.9628 16.1054C53.9396 16.0764 53.9164 16.0444 53.8902 16.0183C53.8669 15.9921 53.8379 15.9689 53.8117 15.9456C53.7827 15.9195 53.7536 15.8933 53.7216 15.873C53.6926 15.8526 53.6606 15.8352 53.6286 15.8148C53.5967 15.7945 53.5647 15.7771 53.5298 15.7596C53.4979 15.7451 53.463 15.7335 53.4281 15.7218C53.3904 15.7102 53.3555 15.6957 53.3177 15.687C53.2857 15.6783 53.2509 15.6753 53.216 15.6695C53.1724 15.6637 53.1317 15.6579 53.0881 15.6579C53.0765 15.6579 53.062 15.655 53.0503 15.655H42.3822C41.8852 15.655 41.4435 15.9718 41.2808 16.4426L38.7554 23.8559C38.549 24.4633 38.8716 25.123 39.4819 25.3322C39.6069 25.3758 39.7318 25.3933 39.8568 25.3933C40.3421 25.3933 40.7925 25.0881 40.9582 24.6057L43.2162 17.9799H52.2221L54.4801 24.6057C54.6458 25.0881 55.0962 25.3933 55.5815 25.3933C55.7065 25.3933 55.8315 25.3729 55.9564 25.3322C56.5638 25.1259 56.8893 24.4633 56.6829 23.8559L54.1576 16.4426L54.1459 16.4396ZM12.2462 30.6067H1.16243C0.520187 30.6067 0 31.1269 0 31.7692C0 32.4114 0.520187 32.9316 1.16243 32.9316H5.54188V43.3034C5.54188 43.9456 6.06207 44.4658 6.70431 44.4658C7.34655 44.4658 7.86674 43.9456 7.86674 43.3034V32.9316H12.2462C12.8884 32.9316 13.4086 32.4114 13.4086 31.7692C13.4086 31.1269 12.8884 30.6067 12.2462 30.6067ZM6.70431 46.2588C6.06207 46.2588 5.54188 46.779 5.54188 47.4213V54.8347C5.54188 55.4769 6.06207 55.9971 6.70431 55.9971C7.34655 55.9971 7.86674 55.4769 7.86674 54.8347V47.4213C7.86674 46.779 7.34655 46.2588 6.70431 46.2588ZM61.507 46.2588C60.8648 46.2588 60.3446 46.779 60.3446 47.4213V54.8347C60.3446 55.4769 60.8648 55.9971 61.507 55.9971C62.1493 55.9971 62.6694 55.4769 62.6694 54.8347V47.4213C62.6694 46.779 62.1493 46.2588 61.507 46.2588ZM74.3431 46.2588C73.7009 46.2588 73.1807 46.779 73.1807 47.4213V54.8347C73.1807 55.4769 73.7009 55.9971 74.3431 55.9971C74.9854 55.9971 75.5056 55.4769 75.5056 54.8347V47.4213C75.5056 46.779 74.9854 46.2588 74.3431 46.2588ZM28.7846 32.9316C29.4269 32.9316 29.9471 32.4114 29.9471 31.7692C29.9471 31.1269 29.4269 30.6067 28.7846 30.6067H18.5989C17.9566 30.6067 17.4364 31.1269 17.4364 31.7692V43.3034C17.4364 43.9456 17.9566 44.4658 18.5989 44.4658H28.7846C29.4269 44.4658 29.9471 43.9456 29.9471 43.3034C29.9471 42.6611 29.4269 42.1409 28.7846 42.1409H19.7613V32.9316H28.7846ZM28.7846 53.6722H19.7613V47.4213C19.7613 46.779 19.2411 46.2588 18.5989 46.2588C17.9566 46.2588 17.4364 46.779 17.4364 47.4213V54.8347C17.4364 55.4769 17.9566 55.9971 18.5989 55.9971H28.7846C29.4269 55.9971 29.9471 55.4769 29.9471 54.8347C29.9471 54.1924 29.4269 53.6722 28.7846 53.6722ZM74.3431 30.6067C73.7009 30.6067 73.1807 31.1269 73.1807 31.7692V42.1409H62.6694V31.7692C62.6694 31.1269 62.1493 30.6067 61.507 30.6067C60.8648 30.6067 60.3446 31.1269 60.3446 31.7692V43.3034C60.3446 43.9456 60.8648 44.4658 61.507 44.4658H74.3431C74.9854 44.4658 75.5056 43.9456 75.5056 43.3034V31.7692C75.5056 31.1269 74.9854 30.6067 74.3431 30.6067ZM69.1325 15.8265C68.5862 16.1665 68.4176 16.8814 68.7577 17.4277L73.3551 24.8411C73.5759 25.1956 73.9537 25.3903 74.3431 25.3903C74.5524 25.3903 74.7645 25.3351 74.9534 25.216C75.4997 24.876 75.6683 24.1611 75.3283 23.6147L70.7309 16.2013C70.3938 15.655 69.676 15.4865 69.1296 15.8265H69.1325ZM61.725 13.8561H69.9811C73.8026 13.8561 76.9092 10.7467 76.9092 6.92807C76.9092 3.1095 73.8026 0 69.984 0H61.7279C61.0856 0 60.5654 0.520187 60.5654 1.16243V12.6937C60.5654 13.336 61.0856 13.8561 61.7279 13.8561H61.725ZM62.8874 2.32486H69.9811C72.521 2.32486 74.5843 4.39107 74.5843 6.92807C74.5843 9.46507 72.5181 11.5313 69.9811 11.5313H62.8874V2.32486ZM61.725 25.3903C62.3672 25.3903 62.8874 24.8702 62.8874 24.2279V16.8145C62.8874 16.1723 62.3672 15.6521 61.725 15.6521C61.0827 15.6521 60.5625 16.1723 60.5625 16.8145V24.2279C60.5625 24.8702 61.0827 25.3903 61.725 25.3903Z" fill="black"/>
</g>
<defs>
<clipPath id="clip0_405_4">
<rect width="76.9121" height="56" fill="white"/>
</clipPath>
</defs>
</svg>
