<svg width="200" height="64" viewBox="0 0 200 64" fill="none" xmlns="http://www.w3.org/2000/svg">
<g clip-path="url(#clip0_317_48)">
<path d="M145.847 29.9376L145.744 31.162C145.03 39.9361 142.174 42.6402 138.654 42.6402C135.49 42.6402 133.245 40.4977 133.705 34.7843L133.807 33.5083C134.521 24.7847 137.377 22.0299 140.897 22.0299C144.01 22.0299 146.306 24.2242 145.847 29.9376ZM66.773 29.9376L66.6704 31.162C65.9571 39.9361 63.0997 42.6402 59.5797 42.6402C56.4165 42.6402 54.1725 40.4977 54.6315 34.7843L54.7328 33.5083C55.4477 24.7847 58.3046 22.0299 61.8248 22.0299C64.9362 22.0299 67.232 24.2242 66.773 29.9376ZM141.918 13.4087C136.314 13.4087 131.755 15.1364 128.534 18.7129C128.993 17.4712 129.235 15.9573 129.266 14.1739H109.626C105.34 14.1739 102.892 16.0611 101.208 20.9078L102.076 14.1739H82.2303C78.5972 14.1739 76.1028 15.9111 75.2016 19.3131C72.7424 15.3719 68.3726 13.4087 62.8445 13.4087C52.336 13.4087 45.4997 19.4798 44.2752 32.437L44.1222 34.0697C43.0508 45.6506 49.122 51.3638 58.5591 51.3638C69.0685 51.3638 75.9051 45.2421 77.1293 32.2839L77.2823 30.652C77.5585 27.6805 77.3568 25.0982 76.7486 22.8975H85.6482L83.0981 44.7323C82.5872 49.0682 84.9346 51.0578 88.862 51.0578C91.2601 51.0578 92.076 50.9047 92.9943 50.7519L96.1576 22.8975H106.514L103.963 44.7323C103.453 49.0682 105.799 51.0578 109.728 51.0578C112.125 51.0578 112.942 50.9047 113.86 50.7519L117.022 22.8975H122.125C123.89 22.8975 125.315 22.4872 126.415 21.6763C124.809 24.5066 123.76 28.081 123.349 32.437L123.196 34.0697C122.125 45.6506 128.195 51.3638 137.633 51.3638C148.142 51.3638 154.977 45.2421 156.202 32.2839L156.355 30.652C157.427 19.1221 151.356 13.4087 141.918 13.4087Z" fill="#DB1F26"/>
</g>
<defs>
<clipPath id="clip0_317_48">
<rect width="200" height="64" fill="transparent"/>
</clipPath>
</defs>
</svg>
