<svg width="129" height="89" viewBox="0 0 129 89" fill="none" xmlns="http://www.w3.org/2000/svg">
<path d="M113.626 89.0001H88.6675C88.0155 89.0001 87.4849 88.4733 87.482 87.8221L87.4286 76.7589C87.4286 75.3738 86.3053 74.2491 84.9212 74.2491H80.0426C76.3229 74.2491 73.2138 71.4641 72.8078 67.7734C72.8078 67.7497 72.8019 67.726 72.8019 67.7024L72.4995 61.3983C72.4669 60.7442 72.9738 60.1907 73.6258 60.1582C74.2808 60.1286 74.8351 60.6317 74.8677 61.2828L75.17 67.5484C75.4575 70.0198 77.547 71.8814 80.0426 71.8814H84.9212C87.6124 71.8814 89.7997 74.0656 89.7997 76.753L89.8471 86.6324H112.441V75.8148C112.441 70.5643 114.237 65.3968 117.5 61.2592C122.266 55.2185 125.206 48.9174 126.235 42.5334C127.156 36.8094 126.454 31.2068 124.204 26.3292C120.182 17.613 111.839 12.1672 101.883 11.7588C97.3606 11.7766 93.2289 12.5846 89.6041 14.1591C89.0024 14.4195 88.3059 14.1443 88.0451 13.5464C87.7843 12.9456 88.0599 12.2501 88.6586 11.9897C92.5887 10.2819 97.0434 9.40884 101.901 9.39404C101.919 9.39404 101.937 9.39404 101.952 9.39404C112.829 9.82911 121.952 15.7899 126.356 25.3407C128.804 30.6474 129.572 36.7236 128.573 42.9122C127.48 49.6987 124.379 56.3668 119.361 62.7272C116.427 66.4475 114.809 71.0971 114.809 75.8177V87.8192C114.809 88.4733 114.278 89.003 113.623 89.003L113.626 89.0001Z" fill="white"/>
<path d="M73.6851 62.5228C73.0568 62.5228 72.5322 62.0285 72.5025 61.3951L72.3336 57.9086C72.301 57.7163 72.132 57.5712 71.9335 57.5712L68.1664 57.6511C67.3246 57.6511 66.5599 57.2871 66.0442 56.6537C65.5404 56.0352 65.3388 55.2361 65.487 54.4547C66.8623 43.3885 69.4112 34.255 73.0657 27.3146C76.9424 19.951 82.1885 14.7923 88.6557 11.9806C89.2573 11.7202 89.9539 11.9954 90.2147 12.5933C90.4755 13.1941 90.1999 13.8896 89.6012 14.15C83.6408 16.7397 78.783 21.5374 75.1641 28.4126C71.64 35.1074 69.1741 43.9805 67.8344 54.7832C67.8314 54.8158 67.8255 54.8483 67.8166 54.8809C67.787 55.0141 67.8463 55.1118 67.8818 55.1562C67.9174 55.2006 68.0004 55.2775 68.1397 55.2775L71.9068 55.1976C73.3502 55.1976 74.5387 56.2601 74.6928 57.6689C74.6928 57.6926 74.6988 57.7163 74.6988 57.7399L74.8677 61.2738C74.9003 61.9279 74.3935 62.4813 73.7414 62.5139C73.7207 62.5139 73.7029 62.5139 73.6821 62.5139L73.6851 62.5228Z" fill="white"/>
<path d="M80.1049 43.652C77.307 43.652 75.0308 41.3789 75.0308 38.585C75.0308 35.7911 77.307 33.5181 80.1049 33.5181C82.9028 33.5181 85.1791 35.7911 85.1791 38.585C85.1791 41.3789 82.9028 43.652 80.1049 43.652ZM80.1049 35.8858C78.6141 35.8858 77.4019 37.0963 77.4019 38.585C77.4019 40.0737 78.6141 41.2842 80.1049 41.2842C81.5958 41.2842 82.808 40.0737 82.808 38.585C82.808 37.0963 81.5958 35.8858 80.1049 35.8858Z" fill="white"/>
<path d="M20.0833 27.3207C19.781 27.3207 19.4876 27.2053 19.2653 26.9951L14.5705 22.529C14.0963 22.0791 14.0785 21.3274 14.529 20.8538C14.9795 20.3803 15.7324 20.3625 16.2066 20.8124L19.9974 24.4202L32.4249 9.9978C32.8517 9.50353 33.6016 9.4473 34.0966 9.87349C34.5915 10.2997 34.6479 11.0485 34.2211 11.5427L20.9784 26.9093C20.768 27.155 20.4627 27.3029 20.1396 27.3207C20.1189 27.3207 20.1011 27.3207 20.0804 27.3207H20.0833Z" fill="#FF00FF"/>
<path d="M60.3891 62.5229H4.74221C2.12807 62.5229 0 60.3978 0 57.7874V4.73546C0 2.12504 2.12807 0 4.74221 0H85.5732C88.1873 0 90.3154 2.12504 90.3154 4.73546V13.0699C90.3154 13.724 89.7849 14.2537 89.1299 14.2537C88.4748 14.2537 87.9443 13.724 87.9443 13.0699V4.73546C87.9443 3.43025 86.8803 2.36773 85.5732 2.36773H4.74221C3.43514 2.36773 2.37111 3.43025 2.37111 4.73546V57.7874C2.37111 59.0926 3.43514 60.1551 4.74221 60.1551H60.3891C61.0441 60.1551 61.5746 60.6849 61.5746 61.339C61.5746 61.9931 61.0441 62.5229 60.3891 62.5229Z" fill="white"/>
<path d="M41.1061 50.2046H12.8662C12.2112 50.2046 11.6807 49.6749 11.6807 49.0208C11.6807 48.3667 12.2112 47.8369 12.8662 47.8369H41.1061C41.7611 47.8369 42.2916 48.3667 42.2916 49.0208C42.2916 49.6749 41.7611 50.2046 41.1061 50.2046Z" fill="white"/>
<path d="M41.1061 39.7691H12.8662C12.2112 39.7691 11.6807 39.2393 11.6807 38.5852C11.6807 37.9311 12.2112 37.4014 12.8662 37.4014H41.1061C41.7611 37.4014 42.2916 37.9311 42.2916 38.5852C42.2916 39.2393 41.7611 39.7691 41.1061 39.7691Z" fill="white"/>
<path d="M69.3639 18.8946H41.124C40.469 18.8946 39.9385 18.3648 39.9385 17.7107C39.9385 17.0566 40.469 16.5269 41.124 16.5269H69.3639C70.0189 16.5269 70.5494 17.0566 70.5494 17.7107C70.5494 18.3648 70.0189 18.8946 69.3639 18.8946Z" fill="white"/>
<path d="M62.1377 29.3301H41.106C40.4509 29.3301 39.9204 28.8004 39.9204 28.1463C39.9204 27.4922 40.4509 26.9624 41.106 26.9624H62.1377C62.7927 26.9624 63.3232 27.4922 63.3232 28.1463C63.3232 28.8004 62.7927 29.3301 62.1377 29.3301Z" fill="white"/>
</svg>
