<svg width="200" height="64" viewBox="0 0 200 64" fill="none" xmlns="http://www.w3.org/2000/svg">
<g clip-path="url(#clip0_317_42)">
<path fill-rule="evenodd" clip-rule="evenodd" d="M143 14.1819H131.184L119.533 31.6527V14.1819H108.305L108.302 27.8727H100.326V18.6187H92.4862L92.4838 27.8727H84.454C85.0713 26.6092 85.4201 25.1882 85.4201 23.6844C85.4201 18.4391 80.7584 14.1877 75.5407 14.1819H57V49.1819H68.1989V23.1302H70.4313C72.7828 23.1302 74.6877 25.0459 74.6877 27.4096C74.6877 29.7697 72.7816 31.6784 70.4337 31.6819L77.5222 49.1819H89.4326L83.8485 35.6042H92.4862V44.8617H100.325V35.6042H108.305V49.1819H119.533L143 14.1819Z" fill="#001957"/>
</g>
<defs>
<clipPath id="clip0_317_42">
<rect width="200" height="64" fill="white"/>
</clipPath>
</defs>
</svg>
