<svg width="83" height="100" viewBox="0 0 83 100" fill="none" xmlns="http://www.w3.org/2000/svg">
<g clip-path="url(#clip0_317_275)">
<path d="M35.383 82.0344C34.8076 82.0344 34.3011 81.6256 34.2022 81.0451L32.5239 71.2077C30.345 70.5767 28.2381 69.7148 26.2481 68.6365L18.0242 74.4187C17.5477 74.7534 16.8943 74.7001 16.4807 74.2913L7.83126 65.7425C7.41767 65.3337 7.36373 64.6879 7.70239 64.2169L13.5526 56.0888C12.4617 54.1189 11.5896 52.0395 10.9512 49.886L0.998014 48.2271C0.419585 48.1324 0 47.6377 0 47.06V34.9714C0 34.3938 0.422582 33.8991 0.998014 33.8043L10.9512 32.1455C11.5896 29.992 12.4617 27.9096 13.5526 25.9427L7.70239 17.8145C7.36373 17.3435 7.41767 16.6978 7.83126 16.289L16.4807 7.74016C16.8943 7.33138 17.5477 7.27806 18.0242 7.61279L26.2481 13.3949C28.2411 12.3197 30.345 11.4547 32.5239 10.8238L34.2022 0.986404C34.2981 0.414704 34.7986 0 35.383 0H47.614C48.1984 0 48.6989 0.417666 48.7948 0.986404L50.4731 10.8238C52.652 11.4547 54.7559 12.3167 56.7489 13.3949L64.9728 7.61279C65.4493 7.27806 66.1027 7.33138 66.5163 7.74016L75.1657 16.289C75.5793 16.6978 75.6333 17.3435 75.2946 17.8145L69.4444 25.9427C70.5323 27.9126 71.4074 29.992 72.0458 32.1455L81.999 33.8043C82.5774 33.8991 82.997 34.3938 82.997 34.9714V47.06C82.997 47.6377 82.5744 48.1324 81.999 48.2271L72.0458 49.886C71.4074 52.0395 70.5353 54.1189 69.4444 56.0888L75.2946 64.2169C75.6333 64.6879 75.5793 65.3337 75.1657 65.7425L70.841 70.0169C70.3735 70.479 69.6152 70.479 69.1447 70.0169C68.6771 69.5548 68.6771 68.8054 69.1447 68.3403L72.7531 64.7738L67.0498 56.85C66.777 56.4709 66.7531 55.9703 66.9898 55.5704C68.2815 53.3665 69.2736 50.9997 69.9389 48.5382C70.0588 48.0909 70.4334 47.7532 70.8979 47.6762L80.5994 46.0588V35.9726L70.8979 34.3553C70.4364 34.2783 70.0588 33.9406 69.9389 33.4933C69.2736 31.0317 68.2815 28.665 66.9898 26.4611C66.7531 26.0582 66.777 25.5576 67.0498 25.1814L72.7531 17.2576L65.5362 10.1247L57.5192 15.7617C57.1356 16.0313 56.6291 16.055 56.2245 15.821C53.9947 14.5443 51.6 13.5638 49.1095 12.9062C48.6569 12.7877 48.3153 12.4174 48.2373 11.9583L46.601 2.36974H36.396L34.7597 11.9583C34.6817 12.4145 34.3401 12.7877 33.8875 12.9062C31.397 13.5638 29.0023 14.5443 26.7725 15.821C26.365 16.052 25.8585 16.0313 25.4778 15.7617L17.4607 10.1247L10.2439 17.2576L15.9472 25.1814C16.22 25.5606 16.244 26.0612 16.0072 26.4611C14.7155 28.665 13.7234 31.0317 13.0581 33.4933C12.9382 33.9406 12.5636 34.2783 12.099 34.3553L2.39763 35.9726V46.0588L12.099 47.6762C12.5636 47.7532 12.9382 48.0909 13.0581 48.5382C13.7234 50.9997 14.7155 53.3665 16.0072 55.5704C16.244 55.9732 16.22 56.4738 15.9472 56.85L10.2439 64.7738L17.4607 71.9068L25.4778 66.2697C25.8615 66.0002 26.3679 65.9765 26.7725 66.2105C29.0023 67.4872 31.397 68.4677 33.8875 69.1253C34.3401 69.2438 34.6817 69.614 34.7597 70.0732L36.5639 80.6511C36.6748 81.2968 36.2342 81.9071 35.5808 82.0167C35.5119 82.0285 35.446 82.0344 35.38 82.0344H35.383Z" fill="black"/>
<path d="M35.6917 58.417C35.5599 58.417 35.425 58.3962 35.2931 58.3488C27.8815 55.7569 22.9034 48.7899 22.9034 41.0172C22.9034 30.8806 31.2471 22.6339 41.503 22.6339C45.579 22.6339 49.4512 23.9136 52.6969 26.3366C53.2244 26.7306 53.3293 27.4741 52.9307 27.9954C52.5321 28.5168 51.7799 28.6234 51.2524 28.2265C48.4262 26.1174 45.0545 25.0036 41.503 25.0036C32.5688 25.0036 25.301 32.1869 25.301 41.0172C25.301 47.7887 29.6377 53.8582 36.0934 56.1154C36.7167 56.3346 37.0434 57.0099 36.8246 57.629C36.6508 58.1148 36.1893 58.4199 35.6947 58.4199L35.6917 58.417Z" fill="#FF00FF"/>
<path d="M53.8028 54.3618C53.4971 54.3618 53.1884 54.2463 52.9547 54.0153C52.4871 53.5532 52.4871 52.8037 52.9547 52.3387C56.0146 49.3143 57.699 45.2946 57.699 41.0172C57.699 37.8092 56.7429 34.7137 54.9327 32.0656C54.5611 31.5235 54.7049 30.7859 55.2564 30.4216C55.8048 30.0542 56.5511 30.1964 56.9197 30.7415C58.9967 33.7807 60.0966 37.3353 60.0966 41.0202C60.0966 45.9315 58.1635 50.5466 54.648 54.0182C54.4142 54.2493 54.1085 54.3648 53.7998 54.3648L53.8028 54.3618Z" fill="black"/>
<path d="M60.5522 100C60.3963 100 60.2405 99.9704 60.0936 99.9111C59.7999 99.7897 59.5662 99.5616 59.4463 99.2683L53.2244 84.419L42.3512 95.1687C42.0095 95.5093 41.494 95.61 41.0445 95.4264C40.5979 95.2427 40.3042 94.8103 40.3042 94.3304V80.8495C40.3042 80.1949 40.8407 79.6647 41.503 79.6647C42.1654 79.6647 42.7018 80.1949 42.7018 80.8495V91.4689L52.7989 81.4894C53.0806 81.2109 53.4882 81.0865 53.8808 81.1665C54.2734 81.2435 54.6001 81.5101 54.7559 81.8745L61.2056 97.2659L67.814 94.5614L61.3644 79.17C61.2115 78.8056 61.2535 78.388 61.4753 78.0592C61.6971 77.7304 62.0717 77.5319 62.4733 77.5319H76.7512L69.1537 70.0228C68.6862 69.5607 68.6862 68.8113 69.1537 68.3462C69.6212 67.8841 70.3795 67.8841 70.85 68.3462L80.4945 77.8785C80.8362 78.2162 80.9411 78.7257 80.7552 79.17C80.5694 79.6143 80.1319 79.9016 79.6463 79.9016H64.2685L70.4904 94.751C70.7451 95.3553 70.4544 96.0485 69.843 96.3002L61.0197 99.9141C60.8729 99.9733 60.717 100.003 60.5612 100.003L60.5522 100Z" fill="black"/>
<path d="M69.9958 70.3664C69.6901 70.3664 69.3814 70.2509 69.1477 70.0198L52.9547 54.0152C52.4871 53.5531 52.4871 52.8037 52.9547 52.3386C53.4222 51.8765 54.1804 51.8765 54.651 52.3386L70.844 68.3433C71.3115 68.8054 71.3115 69.5548 70.844 70.0198C70.6102 70.2509 70.3045 70.3664 69.9958 70.3664Z" fill="black"/>
<path d="M41.5 82.0345C40.8377 82.0345 40.3012 81.5042 40.3012 80.8496V58.2156C40.3012 57.561 40.8377 57.0308 41.5 57.0308C42.1624 57.0308 42.6988 57.561 42.6988 58.2156V80.8496C42.6988 81.5042 42.1624 82.0345 41.5 82.0345Z" fill="black"/>
<path d="M41.5 59.4004C40.8377 59.4004 40.3012 58.8702 40.3012 58.2156V41.0172C40.3012 40.5373 40.5919 40.1049 41.0415 39.9212C41.488 39.7375 42.0065 39.8383 42.3482 40.1789L48.9537 46.7075C49.4212 47.1696 49.4212 47.9191 48.9537 48.3841C48.4861 48.8462 47.7279 48.8462 47.2573 48.3841L42.6958 43.8757V58.2126C42.6958 58.8673 42.1594 59.3975 41.497 59.3975L41.5 59.4004Z" fill="black"/>
</g>
<defs>
<clipPath id="clip0_317_275">
<rect width="83" height="100" fill="white"/>
</clipPath>
</defs>
</svg>
